<?xml version="1.0" encoding="UTF-8"?>
<svg id="Concepts" xmlns="http://www.w3.org/2000/svg" viewBox="0 0 256 256">
  <defs>
    <style>
      .cls-1 {
        fill: #1e1e1c;
      }

      .cls-1, .cls-2, .cls-3 {
        stroke-width: 0px;
      }

      .cls-2 {
        fill: #898989;
      }

      .cls-3 {
        fill: #b2b2b2;
      }
    </style>
  </defs>
  <g id="concept_4" data-name="concept 4">
    <g id="head">
      <g>
        <g>
          <path class="cls-2" d="M182.78,133.21c-9.13,38.16-57,67.7-83.04,57.48-26.04-10.23-36.48-45.69-23.32-79.21,13.16-33.52,39.31-53.21,66.61-47.07s49.81,26.73,39.75,68.81Z"/>
          <path class="cls-1" d="M111.4,195.31c-4.58,0-8.83-.73-12.61-2.21-13.36-5.25-23.26-16.8-27.9-32.55-4.57-15.51-3.46-33.27,3.12-50.02,6.72-17.11,16.71-30.79,28.9-39.56,12.63-9.09,26.7-12.23,40.68-9.09,16.77,3.77,29.53,12,36.88,23.79,7.84,12.57,9.46,28.77,4.82,48.15h0c-6.07,25.37-27.05,44.23-44.67,53.42-10.22,5.33-20.34,8.08-29.23,8.08ZM132.98,65.86c-22.09,0-42.67,17.33-54.15,46.56-6.16,15.68-7.21,32.25-2.97,46.66,4.17,14.18,12.99,24.54,24.82,29.19,9.69,3.81,23.38,1.75,37.55-5.64,20.87-10.89,37.36-30.52,42.03-50.03l2.52.6-2.52-.6c4.3-17.98,2.89-32.85-4.18-44.21-6.6-10.59-18.23-18.01-33.62-21.47-3.17-.71-6.34-1.06-9.48-1.06Z"/>
        </g>
        <path class="cls-3" d="M179.47,119.84c1.72-12.55-3.25-12.16-3.88-.58-.86,15.72-16.06,40.83-25.59,51.21,11.78-7.88,27.14-33.58,29.47-50.62Z"/>
      </g>
    </g>
  </g>
</svg>