<?xml version="1.0" encoding="UTF-8"?>
<svg id="Concepts" xmlns="http://www.w3.org/2000/svg" viewBox="0 0 64 64">
  <defs>
    <style>
      .cls-1 {
        fill: #1e1e1c;
      }

      .cls-1, .cls-2, .cls-3 {
        stroke-width: 0px;
      }

      .cls-2 {
        fill: #d3d3d3;
      }

      .cls-3 {
        fill: #b5b5b5;
      }
    </style>
  </defs>
  <g id="concept_4" data-name="concept 4">
    <g>
      <g id="mandible_f">
        <path class="cls-3" d="M43.26,19.98c.45-2.87-.88-7.12-3.16-8.91-2.27-1.8-5.42-2.34-8.2-1.56-3.95,1.12-6.87,4.69-8.19,8.61-1.32,3.92-1.27,8.16-.98,12.3.29,4.13.82,8.28.42,12.4-.24,2.46-.81,4.88-1.38,7.29-.37,1.58-.75,3.16-1.12,4.74,11.9-7.77,20.31-20.74,22.6-34.86Z"/>
        <path class="cls-1" d="M45.2,19.98c.52-3.88-1.19-8.55-4.43-10.83-3.75-2.63-9-2.49-12.75.04s-6.02,6.68-6.86,11.06c-1.02,5.36-.23,10.74.1,16.12.18,2.99.15,5.95-.4,8.9s-1.36,6.04-2.07,9.05c-.37,1.56,1.37,3.17,2.85,2.19,12.36-8.14,21.06-21.4,23.5-36.02.17-1.03-.27-2.09-1.36-2.39-.93-.26-2.22.32-2.39,1.36-2.27,13.63-10.14,26.08-21.71,33.7l2.85,2.19c1.09-4.6,2.44-9.23,2.68-13.97s-.56-9.31-.68-13.97c-.11-4.2.32-8.53,2.73-12.09,1.93-2.85,5.29-4.85,8.8-4.05,3.93.89,5.76,4.92,5.26,8.71-.14,1.04.99,1.94,1.94,1.94,1.16,0,1.8-.9,1.94-1.94Z"/>
      </g>
      <path class="cls-2" d="M38.3,19.4c.77-6.59-2.14-6.04-2.41.13-.36,8.4-6.06,17.96-9.17,25.47,5.22-6.6,10.52-16.62,11.58-25.59Z"/>
    </g>
  </g>
</svg>