<?xml version="1.0" encoding="UTF-8"?>
<svg id="Concepts" xmlns="http://www.w3.org/2000/svg" viewBox="0 0 64 64">
  <defs>
    <style>
      .cls-1 {
        fill: #1e1e1c;
      }

      .cls-1, .cls-2 {
        stroke-width: 0px;
      }

      .cls-2 {
        fill: #b5b5b5;
      }
    </style>
  </defs>
  <g id="concept_4" data-name="concept 4">
    <g id="mandible_b">
      <path class="cls-2" d="M23.98,14.69c.89-2.76,4.01-5.95,6.85-6.52,2.84-.58,5.9.36,8.02,2.32,3.02,2.78,4,7.29,3.41,11.38-.59,4.09-2.56,7.86-4.69,11.41-2.13,3.55-4.48,7.01-5.98,10.87-.9,2.31-1.48,4.72-2.06,7.13-.38,1.58-.76,3.16-1.14,4.73-7.1-12.31-8.73-27.69-4.39-41.31Z"/>
      <path class="cls-1" d="M25.85,15.21c1.11-3.15,4.38-5.73,7.78-5.18,3.79.61,6.08,3.87,6.69,7.46,1.45,8.56-5.72,15.95-9.24,23.05-2.34,4.71-3.35,9.88-4.57,14.95l3.55-.46c-6.86-12.01-8.33-26.64-4.2-39.82.75-2.39-3-3.41-3.74-1.03-4.44,14.15-2.76,29.93,4.59,42.81.81,1.42,3.15,1.17,3.55-.46,1.25-5.19,2.25-10.46,4.79-15.2s5.51-8.67,7.49-13.44c1.77-4.26,2.54-9.15.96-13.6s-5.21-7.64-9.93-8.16c-5.17-.57-9.8,3.35-11.46,8.05-.83,2.36,2.92,3.38,3.74,1.03Z"/>
    </g>
  </g>
</svg>