<?xml version="1.0" encoding="UTF-8"?>
<svg id="Concepts" xmlns="http://www.w3.org/2000/svg" viewBox="0 0 512 512">
  <defs>
    <style>
      .cls-1 {
        fill: #1e1e1c;
      }

      .cls-1, .cls-2, .cls-3, .cls-4, .cls-5, .cls-6, .cls-7, .cls-8, .cls-9, .cls-10, .cls-11 {
        stroke-width: 0px;
      }

      .cls-2 {
        fill: #d3d3d3;
      }

      .cls-3 {
        fill: #898989;
      }

      .cls-4 {
        fill: #000;
      }

      .cls-5 {
        fill: #72c156;
      }

      .cls-6 {
        fill: #b2b2b2;
      }

      .cls-12 {
        opacity: .99;
      }

      .cls-7 {
        fill: #999;
      }

      .cls-8 {
        fill: #a8a8a8;
      }

      .cls-9 {
        fill: #b5b5b5;
      }

      .cls-10 {
        fill: #efefef;
      }

      .cls-11 {
        fill: #fff;
      }
    </style>
  </defs>
  <g id="concept_4" data-name="concept 4">
    <g id="Torso">
      <g id="torso_1">
        <g id="Torso_part_1">
          <ellipse class="cls-10" cx="130.11" cy="422.5" rx="57.53" ry="40.97"/>
          <path class="cls-1" d="M130.11,466.72c-33.51,0-60.77-19.84-60.77-44.22s27.26-44.22,60.77-44.22,60.78,19.84,60.78,44.22-27.26,44.22-60.78,44.22ZM130.11,384.78c-29.93,0-54.28,16.92-54.28,37.72s24.35,37.72,54.28,37.72,54.28-16.92,54.28-37.72-24.35-37.72-54.28-37.72Z"/>
        </g>
        <g id="shine">
          <path class="cls-11" d="M153.53,452.71c11.47-5.39,8.94-9.33-1.11-3.56-13.66,7.84-41.12,3.66-53.3-1.21,9.74,7.4,38.84,12.09,54.42,4.77Z"/>
        </g>
      </g>
      <g id="torso_2">
        <g id="Torso_part_2">
          <ellipse class="cls-10" cx="128" cy="383.89" rx="63.87" ry="37.38"/>
          <path class="cls-1" d="M128,424.52c-17.63,0-34.25-4.05-46.8-11.39-13.1-7.67-20.31-18.05-20.31-29.24s7.21-21.57,20.31-29.24c12.55-7.35,29.17-11.39,46.8-11.39s34.25,4.05,46.8,11.39c13.1,7.67,20.31,18.05,20.31,29.24s-7.21,21.57-20.31,29.24c-12.55,7.35-29.17,11.39-46.8,11.39ZM128,349.75c-33.42,0-60.62,15.31-60.62,34.14s27.19,34.14,60.62,34.14,60.62-15.31,60.62-34.14-27.19-34.14-60.62-34.14Z"/>
        </g>
        <g id="shine-2" data-name="shine">
          <path class="cls-11" d="M163.24,408.16c11.47-5.39,8.43-9.34-1.62-3.57-13.66,7.84-40.15,9.38-54.05,7.04,13.02,5.59,40.1,3.85,55.67-3.46Z"/>
        </g>
      </g>
      <g id="torso_3">
        <g id="Torso_part_3">
          <ellipse class="cls-10" cx="128" cy="340.44" rx="63.87" ry="35.92"/>
          <path class="cls-1" d="M128,379.61c-17.61,0-34.21-3.88-46.75-10.94-13.13-7.38-20.36-17.41-20.36-28.23s7.23-20.84,20.36-28.23c12.54-7.05,29.14-10.94,46.75-10.94s34.21,3.88,46.75,10.94c13.13,7.38,20.36,17.41,20.36,28.23s-7.23,20.84-20.36,28.23c-12.54,7.05-29.14,10.94-46.75,10.94ZM128,307.77c-32.86,0-60.62,14.96-60.62,32.67s27.76,32.67,60.62,32.67,60.62-14.96,60.62-32.67-27.76-32.67-60.62-32.67Z"/>
        </g>
        <g id="shine-3" data-name="shine">
          <path class="cls-11" d="M142.68,369.48c12.48-2.16,10.6-6.78-.62-3.88-15.24,3.94-42.15-.62-54.93-6.56,11.08,8.84,38.59,13.37,55.55,10.43Z"/>
        </g>
      </g>
    </g>
    <g id="head">
      <g>
        <g>
          <path class="cls-3" d="M192.58,158.32c-9.13,38.16-57,67.7-83.04,57.48-26.04-10.23-36.48-45.69-23.32-79.21,13.16-33.52,39.31-53.21,66.61-47.07,28.06,6.31,49.81,26.73,39.75,68.81Z"/>
          <path class="cls-1" d="M121.2,220.42c-4.58,0-8.83-.73-12.61-2.21-13.36-5.25-23.26-16.8-27.9-32.55-4.57-15.51-3.46-33.27,3.12-50.02,6.72-17.11,16.71-30.79,28.9-39.56,12.63-9.09,26.7-12.23,40.68-9.09,16.77,3.77,29.53,12,36.88,23.79,7.84,12.57,9.46,28.77,4.82,48.15h0c-6.07,25.37-27.05,44.23-44.67,53.42-10.22,5.33-20.34,8.08-29.23,8.08ZM142.78,90.97c-22.09,0-42.67,17.33-54.15,46.56-6.16,15.68-7.21,32.25-2.97,46.66,4.17,14.18,12.99,24.54,24.82,29.19,9.69,3.81,23.38,1.75,37.55-5.64,20.87-10.89,37.36-30.52,42.03-50.03l2.52.6-2.52-.6c4.3-17.98,2.89-32.85-4.18-44.21-6.6-10.59-18.23-18.01-33.62-21.47-3.17-.71-6.34-1.06-9.48-1.06Z"/>
        </g>
        <path class="cls-6" d="M189.27,144.95c1.72-12.55-3.25-12.16-3.88-.58-.86,15.72-16.06,40.83-25.59,51.21,11.78-7.88,27.14-33.58,29.47-50.62Z"/>
      </g>
    </g>
    <g id="mandible_b">
      <path class="cls-9" d="M279.98,270.69c.89-2.76,4.01-5.95,6.85-6.52,2.84-.58,5.9.36,8.02,2.32,3.02,2.78,4,7.29,3.41,11.38-.59,4.09-2.56,7.86-4.69,11.41-2.13,3.55-4.48,7.01-5.98,10.87-.9,2.31-1.48,4.72-2.06,7.13-.38,1.58-.76,3.16-1.14,4.73-7.1-12.31-8.73-27.69-4.39-41.31Z"/>
      <path class="cls-1" d="M281.85,271.21c1.11-3.15,4.38-5.73,7.78-5.18,3.79.61,6.08,3.87,6.69,7.46,1.45,8.56-5.72,15.95-9.24,23.05-2.34,4.71-3.35,9.88-4.57,14.95l3.55-.46c-6.86-12.01-8.33-26.64-4.2-39.82.75-2.39-3-3.41-3.74-1.03-4.44,14.15-2.76,29.93,4.59,42.81.81,1.42,3.15,1.17,3.55-.46,1.25-5.19,2.25-10.46,4.79-15.2s5.51-8.67,7.49-13.44c1.77-4.26,2.54-9.15.96-13.6s-5.21-7.64-9.93-8.16c-5.17-.57-9.8,3.35-11.46,8.05-.83,2.36,2.92,3.38,3.74,1.03Z"/>
    </g>
    <g>
      <g id="mandible_f">
        <path class="cls-9" d="M363.26,275.98c.45-2.87-.88-7.12-3.16-8.91-2.27-1.8-5.42-2.34-8.2-1.56-3.95,1.12-6.87,4.69-8.19,8.61-1.32,3.92-1.27,8.16-.98,12.3.29,4.13.82,8.28.42,12.4-.24,2.46-.81,4.88-1.38,7.29-.37,1.58-.75,3.16-1.12,4.74,11.9-7.77,20.31-20.74,22.6-34.86Z"/>
        <path class="cls-1" d="M365.2,275.98c.52-3.88-1.19-8.55-4.43-10.83-3.75-2.63-9-2.49-12.75.04s-6.02,6.68-6.86,11.06c-1.02,5.36-.23,10.74.1,16.12.18,2.99.15,5.95-.4,8.9s-1.36,6.04-2.07,9.05c-.37,1.56,1.37,3.17,2.85,2.19,12.36-8.14,21.06-21.4,23.5-36.02.17-1.03-.27-2.09-1.36-2.39-.93-.26-2.22.32-2.39,1.36-2.27,13.63-10.14,26.08-21.71,33.7l2.85,2.19c1.09-4.6,2.44-9.23,2.68-13.97.23-4.67-.56-9.31-.68-13.97-.11-4.2.32-8.53,2.73-12.09,1.93-2.85,5.29-4.85,8.8-4.05,3.93.89,5.76,4.92,5.26,8.71-.14,1.04.99,1.94,1.94,1.94,1.16,0,1.8-.9,1.94-1.94Z"/>
      </g>
      <path class="cls-2" d="M358.3,275.4c.77-6.59-2.14-6.04-2.41.13-.36,8.4-6.06,17.96-9.17,25.47,5.22-6.6,10.52-16.62,11.58-25.59Z"/>
    </g>
    <g id="tykadlo_down_f" class="cls-12">
      <path class="cls-4" d="M482.35,315.01c.78-4.47-1.87-26.58.06-41.05.68-5.12,1.53-8.7,2.89-13.69.85-3.14-4.12-4.07-4.97-.94-2.55,9.38-3.53,17.65-4.32,27.31-.71,8.73-1.68,23.88-1.34,28.18.26,3.24,6.9,4.66,7.68.19Z"/>
    </g>
    <g id="tykadlo_top_f" class="cls-12">
      <path class="cls-4" d="M436.88,308.1c-10.94-9.72-21.52-20.02-31.18-31.01-3.39-3.85-6.65-7.86-9.48-12.14-1.8-2.72-2.58-1.43-1.34,1.58,3.52,8.62,9.27,16.59,16.02,23.58,6.06,6.28,12.34,12.34,18.76,18.25,1.28,1.18,2.57,2.36,3.87,3.51,2.44,2.17,5.79-1.62,3.36-3.79h0Z"/>
    </g>
    <ellipse class="cls-4" cx="352" cy="352" rx="17.08" ry="11.76" transform="translate(-72.2 612.51) rotate(-76.56)"/>
    <ellipse class="cls-4" cx="288" cy="352" rx="16.13" ry="11.76" transform="translate(-121.32 550.26) rotate(-76.56)"/>
    <g id="jehla">
      <g id="Jehlici">
        <g>
          <rect class="cls-7" x="315.48" y="161.09" width="9.1" height="41.93" transform="translate(-.23 .41) rotate(-.07)"/>
          <path class="cls-4" d="M323.89,158.1h-3.88s-3.91.01-3.91.01h-2.85s.78,16.47.78,16.47l.14,2.98.36,7.53.17,3.59.13,2.73.04.92.65,13.69h9.09s.64-14,.64-14l.03-.48.22-4.98v-.31s.41-8.71.41-8.71l.14-2.96h0s.76-16.47.76-16.47h-2.88ZM317.71,203.04l-.52-10.96-.03-.67-.16-3.49-.13-2.71-.37-7.64-.14-2.98-.29-5.98-.21-4.51h4.13s.02,0,.02,0h4.16s-.21,4.5-.21,4.5l-.28,5.97v.02s-.14,2.96-.14,2.96l-.4,8.5-.02.52-.23,5.05v.14s-.52,11.27-.52,11.27h-4.66Z"/>
        </g>
        <g>
          <polygon class="cls-5" points="330.35 174.56 309.65 174.59 319.96 87.67 330.35 174.56"/>
          <path class="cls-4" d="M304.44,177.57h9.71s1.31-.01,1.31-.01h1.03s7.05-.02,7.05-.02h1.01s0,0,0,0h1.31s9.67-.01,9.67-.01l-15.62-127.56-15.49,127.6ZM324.56,168.61l-.58-.02-3.95.02h-.02s-3.93-.01-3.93-.01h-.6s-.62,0-.62,0l.61-5.09v-.05s.28-2.36.28-2.36l.36-2.99,3.89-32.64,3.91,32.63.35,2.99.31,2.57v.11s.59,4.83.59,4.83h-.57s-.02,0-.02,0Z"/>
        </g>
        <polygon class="cls-8" points="330.35 174.56 309.65 174.59 319.94 57.63 330.35 174.56"/>
        <polygon class="cls-7" points="319.94 57.63 320.02 174.58 309.65 174.59 319.94 57.63"/>
      </g>
      <path class="cls-11" d="M328.06,167.72c.3-1.62-4.92-65.04-4.92-65.04,0,0,2.35,62.47,2.95,65.02s1.67,1.64,1.97.02Z"/>
    </g>
    <path class="cls-4" d="M277.41,415.59c1.9-.06,3.72.38,5.56.78,1.75.38,3.49.77,5.22,1.23,3.38.9,6.65,2.08,9.64,3.93,1.65,1.02,3.15-1.58,1.51-2.59-3.19-1.97-6.74-3.27-10.35-4.23-1.79-.48-3.59-.88-5.4-1.27-2.03-.44-4.08-.92-6.18-.85-1.93.06-1.93,3.06,0,3h0Z"/>
    <path class="cls-4" d="M340.97,416.39c7.2-.33,14.91-.68,21.45,2.86,1.7.92,3.21-1.67,1.51-2.59-7.04-3.81-15.19-3.63-22.96-3.27-1.92.09-1.93,3.09,0,3h0Z"/>
    <g>
      <path class="cls-4" d="M406.76,27.03c.89,4.43,3.47,17.9,6.49,32.85.17.83.36,1.65.51,2.49.92,5.33,9.56,6.02,9.07,0-.07-.91-.14-1.82-.21-2.72-1.11-14.41-2.41-27.84-3.66-33.7-2.62-12.27-14.33-9.56-12.2,1.07Z"/>
      <path class="cls-4" d="M481.86,62.38c.05.3.12.61.18.91,3.76,18.46,8.03,38.27,10.55,45.75.51,1.51.99,1.56.99-.3,0-3.99-1.09-25.2-2.6-45.54-.02-.27-.04-.55-.06-.82-.39-6.38-10.1-6.17-9.07,0Z"/>
    </g>
    <g>
      <path class="cls-4" d="M411.81,150.75c-1.49-4.05-8.91-.07-7.42,3.97,3.92,10.65,7.51,21.53,10.62,32.63.14.5.31,1,.42,1.51,1.06,4.82,9.48,4.36,8.38,0-.15-.58-.31-1.16-.47-1.74-2.76-10.09-5.86-20.03-9.23-29.83-.75-2.19-1.51-4.37-2.3-6.54Z"/>
      <path class="cls-4" d="M484.74,188.86c-1.61-6.04-9.86-6.13-8.38,0,.07.3.16.6.25.89,1.93,7.06,3.66,14.21,5.15,21.45,1.4,6.82,2.51,13.8,2.85,20.99.22,4.57,2.25,3.07,3.02-1.68,2.2-13.59.96-27.19-2.38-39.81-.08-.32-.17-.63-.26-.95-.08-.3-.17-.59-.25-.89Z"/>
    </g>
  </g>
</svg>