<?xml version="1.0" encoding="UTF-8"?>
<svg id="Concepts" xmlns="http://www.w3.org/2000/svg" xmlns:xlink="http://www.w3.org/1999/xlink" viewBox="0 0 512 512">
  <defs>
    <style>
      .cls-1 {
        fill: #e1d9c2;
      }

      .cls-1, .cls-2, .cls-3, .cls-4, .cls-5, .cls-6, .cls-7, .cls-8, .cls-9, .cls-10, .cls-11, .cls-12, .cls-13, .cls-14, .cls-15, .cls-16, .cls-17, .cls-18, .cls-19, .cls-20, .cls-21, .cls-22, .cls-23, .cls-24, .cls-25, .cls-26, .cls-27, .cls-28, .cls-29, .cls-30, .cls-31, .cls-32, .cls-33, .cls-34, .cls-35, .cls-36, .cls-37, .cls-38, .cls-39, .cls-40, .cls-41, .cls-42, .cls-43, .cls-44, .cls-45, .cls-46, .cls-47, .cls-48 {
        stroke-width: 0px;
      }

      .cls-2 {
        fill: #1e1e1c;
      }

      .cls-3 {
        fill: #ede6d0;
      }

      .cls-4 {
        fill: #b7b4ac;
      }

      .cls-5 {
        fill: #e6dec8;
      }

      .cls-6 {
        fill: #000;
      }

      .cls-7 {
        fill: #d6d3cc;
      }

      .cls-8 {
        fill: #f7f1dd;
      }

      .cls-9 {
        fill: #f0e9d4;
      }

      .cls-10 {
        fill: #e9e2cc;
      }

      .cls-11 {
        fill: #71aa72;
      }

      .cls-12 {
        fill: #5f9961;
      }

      .cls-13 {
        fill: #ece5cf;
      }

      .cls-14 {
        fill: #72c156;
      }

      .cls-15 {
        fill: #e5dec7;
      }

      .cls-49 {
        clip-path: url(#clippath-2);
      }

      .cls-16 {
        fill: #e7dfc9;
      }

      .cls-17 {
        fill: #f6efdb;
      }

      .cls-18 {
        fill: #f0e9d5;
      }

      .cls-19 {
        fill: #f6f0dc;
      }

      .cls-20 {
        fill: #ebe4ce;
      }

      .cls-21 {
        fill: none;
      }

      .cls-22 {
        fill: #8c8a83;
      }

      .cls-23 {
        fill: #f9f3df;
      }

      .cls-24 {
        fill: #e3dcc5;
      }

      .cls-25 {
        fill: #eae3cd;
      }

      .cls-50 {
        clip-path: url(#clippath-1);
      }

      .cls-51 {
        opacity: .99;
      }

      .cls-26 {
        fill: #fff9e6;
      }

      .cls-27 {
        fill: #e3dbc4;
      }

      .cls-28 {
        fill: #fcf5e2;
      }

      .cls-29 {
        fill: #e4ddc6;
      }

      .cls-52 {
        clip-path: url(#clippath);
      }

      .cls-30 {
        fill: #e8e0ca;
      }

      .cls-31 {
        fill: #b5b2aa;
      }

      .cls-32 {
        fill: #f3ecd8;
      }

      .cls-33 {
        fill: #faf4e0;
      }

      .cls-34 {
        fill: #eee7d1;
      }

      .cls-35 {
        fill: #e0d8c1;
      }

      .cls-36 {
        fill: #f4edd9;
      }

      .cls-37 {
        fill: #fff;
      }

      .cls-38 {
        fill: #e2dac3;
      }

      .cls-39 {
        fill: #fbf4e1;
      }

      .cls-40 {
        fill: #f1ead6;
      }

      .cls-41 {
        fill: #e9e1cb;
      }

      .cls-42 {
        fill: #fdf7e4;
      }

      .cls-43 {
        fill: #fcf6e3;
      }

      .cls-44 {
        fill: #efe8d2;
      }

      .cls-45 {
        fill: #f8f2de;
      }

      .cls-46 {
        fill: #f2ebd7;
      }

      .cls-47 {
        fill: #f5eeda;
      }

      .cls-48 {
        fill: #fef8e5;
      }
    </style>
    <clipPath id="clippath">
      <ellipse class="cls-21" cx="130.11" cy="422.5" rx="57.53" ry="40.97"/>
    </clipPath>
    <clipPath id="clippath-1">
      <ellipse class="cls-21" cx="128" cy="383.89" rx="63.87" ry="37.38"/>
    </clipPath>
    <clipPath id="clippath-2">
      <ellipse class="cls-21" cx="128" cy="340.44" rx="63.87" ry="35.92"/>
    </clipPath>
  </defs>
  <g id="concept_4" data-name="concept 4">
    <g id="leg_f_1" class="cls-51">
      <path class="cls-6" d="M493.79,26.65c-3.36,5.81-10.34,19.28-9.21,34.22,1.59,20.96,6.32,35.46,6.32,39.58,0,1.86-.48,1.81-.99.3-2.6-7.73-10.65-20.58-14.49-39.54-3.16-15.56,5.09-33.1,7.27-37.23,5.02-9.52,16.61-6.86,11.11,2.67Z"/>
    </g>
    <g id="leg_f_1-2" data-name="leg_f_1" class="cls-51">
      <path class="cls-6" d="M418.96,25.96c3.1,14.53,6.53,75.7,6.53,82.77,0,1.86-.48,1.81-.99.3-4.74-14.07-15.7-71.83-17.74-82-2.13-10.63,9.58-13.34,12.2-1.07Z"/>
    </g>
    <g id="Torso">
      <g id="torso_1">
        <g id="Torso_part_1">
          <g class="cls-52">
            <rect class="cls-35" x="72.58" y="381.53" width="3.11" height="81.94"/>
            <rect class="cls-1" x="75.69" y="381.53" width="3.11" height="81.94"/>
            <rect class="cls-38" x="78.8" y="381.53" width="3.11" height="81.94"/>
            <rect class="cls-27" x="81.91" y="381.53" width="3.11" height="81.94"/>
            <rect class="cls-24" x="85.02" y="381.53" width="3.11" height="81.94"/>
            <rect class="cls-29" x="88.13" y="381.53" width="3.11" height="81.94"/>
            <rect class="cls-15" x="91.24" y="381.53" width="3.11" height="81.94"/>
            <rect class="cls-5" x="94.35" y="381.53" width="3.11" height="81.94"/>
            <rect class="cls-16" x="97.46" y="381.53" width="3.11" height="81.94"/>
            <rect class="cls-30" x="100.57" y="381.53" width="3.11" height="81.94"/>
            <rect class="cls-41" x="103.68" y="381.53" width="3.11" height="81.94"/>
            <rect class="cls-10" x="106.79" y="381.53" width="3.11" height="81.94"/>
            <rect class="cls-25" x="109.9" y="381.53" width="3.11" height="81.94"/>
            <rect class="cls-20" x="113.01" y="381.53" width="3.11" height="81.94"/>
            <rect class="cls-13" x="116.11" y="381.53" width="3.11" height="81.94"/>
            <rect class="cls-3" x="119.22" y="381.53" width="3.11" height="81.94"/>
            <rect class="cls-34" x="122.33" y="381.53" width="3.11" height="81.94"/>
            <rect class="cls-44" x="125.44" y="381.53" width="3.11" height="81.94"/>
            <rect class="cls-9" x="128.55" y="381.53" width="3.11" height="81.94"/>
            <rect class="cls-18" x="131.66" y="381.53" width="3.11" height="81.94"/>
            <rect class="cls-40" x="134.77" y="381.53" width="3.11" height="81.94"/>
            <rect class="cls-46" x="137.88" y="381.53" width="3.11" height="81.94"/>
            <rect class="cls-32" x="140.99" y="381.53" width="3.11" height="81.94"/>
            <rect class="cls-36" x="144.1" y="381.53" width="3.11" height="81.94"/>
            <rect class="cls-47" x="147.21" y="381.53" width="3.11" height="81.94"/>
            <rect class="cls-17" x="150.32" y="381.53" width="3.11" height="81.94"/>
            <rect class="cls-19" x="153.43" y="381.53" width="3.11" height="81.94"/>
            <rect class="cls-8" x="156.54" y="381.53" width="3.11" height="81.94"/>
            <rect class="cls-45" x="159.65" y="381.53" width="3.11" height="81.94"/>
            <rect class="cls-23" x="162.76" y="381.53" width="3.11" height="81.94"/>
            <rect class="cls-33" x="165.87" y="381.53" width="3.11" height="81.94"/>
            <rect class="cls-39" x="168.98" y="381.53" width="3.11" height="81.94"/>
            <rect class="cls-28" x="172.09" y="381.53" width="3.11" height="81.94"/>
            <rect class="cls-43" x="175.2" y="381.53" width="3.11" height="81.94"/>
            <rect class="cls-42" x="178.31" y="381.53" width="3.11" height="81.94"/>
            <rect class="cls-48" x="181.42" y="381.53" width="3.11" height="81.94"/>
            <rect class="cls-26" x="184.53" y="381.53" width="3.11" height="81.94"/>
          </g>
          <path class="cls-2" d="M130.11,466.72c-33.51,0-60.77-19.84-60.77-44.22s27.26-44.22,60.77-44.22,60.78,19.84,60.78,44.22-27.26,44.22-60.78,44.22ZM130.11,384.78c-29.93,0-54.28,16.92-54.28,37.72s24.35,37.72,54.28,37.72,54.28-16.92,54.28-37.72-24.35-37.72-54.28-37.72Z"/>
        </g>
        <g id="shine">
          <path class="cls-37" d="M153.53,452.71c11.47-5.39,8.94-9.33-1.11-3.56-13.66,7.84-41.12,3.66-53.3-1.21,9.74,7.4,38.84,12.09,54.42,4.77Z"/>
        </g>
      </g>
      <g id="torso_2">
        <g id="Torso_part_2">
          <g class="cls-50">
            <rect class="cls-35" x="64.13" y="346.5" width="3.45" height="74.77"/>
            <rect class="cls-1" x="67.59" y="346.5" width="3.45" height="74.77"/>
            <rect class="cls-38" x="71.04" y="346.5" width="3.45" height="74.77"/>
            <rect class="cls-27" x="74.49" y="346.5" width="3.45" height="74.77"/>
            <rect class="cls-24" x="77.94" y="346.5" width="3.45" height="74.77"/>
            <rect class="cls-29" x="81.4" y="346.5" width="3.45" height="74.77"/>
            <rect class="cls-15" x="84.85" y="346.5" width="3.45" height="74.77"/>
            <rect class="cls-5" x="88.3" y="346.5" width="3.45" height="74.77"/>
            <rect class="cls-16" x="91.75" y="346.5" width="3.45" height="74.77"/>
            <rect class="cls-30" x="95.2" y="346.5" width="3.45" height="74.77"/>
            <rect class="cls-41" x="98.66" y="346.5" width="3.45" height="74.77"/>
            <rect class="cls-10" x="102.11" y="346.5" width="3.45" height="74.77"/>
            <rect class="cls-25" x="105.56" y="346.5" width="3.45" height="74.77"/>
            <rect class="cls-20" x="109.01" y="346.5" width="3.45" height="74.77"/>
            <rect class="cls-13" x="112.47" y="346.5" width="3.45" height="74.77"/>
            <rect class="cls-3" x="115.92" y="346.5" width="3.45" height="74.77"/>
            <rect class="cls-34" x="119.37" y="346.5" width="3.45" height="74.77"/>
            <rect class="cls-44" x="122.82" y="346.5" width="3.45" height="74.77"/>
            <rect class="cls-9" x="126.27" y="346.5" width="3.45" height="74.77"/>
            <rect class="cls-18" x="129.73" y="346.5" width="3.45" height="74.77"/>
            <rect class="cls-40" x="133.18" y="346.5" width="3.45" height="74.77"/>
            <rect class="cls-46" x="136.63" y="346.5" width="3.45" height="74.77"/>
            <rect class="cls-32" x="140.08" y="346.5" width="3.45" height="74.77"/>
            <rect class="cls-36" x="143.53" y="346.5" width="3.45" height="74.77"/>
            <rect class="cls-47" x="146.99" y="346.5" width="3.45" height="74.77"/>
            <rect class="cls-17" x="150.44" y="346.5" width="3.45" height="74.77"/>
            <rect class="cls-19" x="153.89" y="346.5" width="3.45" height="74.77"/>
            <rect class="cls-8" x="157.34" y="346.5" width="3.45" height="74.77"/>
            <rect class="cls-45" x="160.8" y="346.5" width="3.45" height="74.77"/>
            <rect class="cls-23" x="164.25" y="346.5" width="3.45" height="74.77"/>
            <rect class="cls-33" x="167.7" y="346.5" width="3.45" height="74.77"/>
            <rect class="cls-39" x="171.15" y="346.5" width="3.45" height="74.77"/>
            <rect class="cls-28" x="174.6" y="346.5" width="3.45" height="74.77"/>
            <rect class="cls-43" x="178.06" y="346.5" width="3.45" height="74.77"/>
            <rect class="cls-42" x="181.51" y="346.5" width="3.45" height="74.77"/>
            <rect class="cls-48" x="184.96" y="346.5" width="3.45" height="74.77"/>
            <rect class="cls-26" x="188.41" y="346.5" width="3.45" height="74.77"/>
          </g>
          <path class="cls-2" d="M128,424.52c-17.63,0-34.25-4.05-46.8-11.39-13.1-7.67-20.31-18.05-20.31-29.24s7.21-21.57,20.31-29.24c12.55-7.35,29.17-11.39,46.8-11.39s34.25,4.05,46.8,11.39c13.1,7.67,20.31,18.05,20.31,29.24s-7.21,21.57-20.31,29.24c-12.55,7.35-29.17,11.39-46.8,11.39ZM128,349.75c-33.42,0-60.62,15.31-60.62,34.14s27.19,34.14,60.62,34.14,60.62-15.31,60.62-34.14-27.19-34.14-60.62-34.14Z"/>
        </g>
        <g id="shine-2" data-name="shine">
          <path class="cls-37" d="M163.24,408.16c11.47-5.39,8.43-9.34-1.62-3.57-13.66,7.84-40.15,9.38-54.05,7.04,13.02,5.59,40.1,3.85,55.67-3.46Z"/>
        </g>
      </g>
      <g id="torso_3">
        <g id="Torso_part_3">
          <g class="cls-49">
            <rect class="cls-35" x="64.13" y="304.53" width="3.45" height="71.83"/>
            <rect class="cls-1" x="67.59" y="304.53" width="3.45" height="71.83"/>
            <rect class="cls-38" x="71.04" y="304.53" width="3.45" height="71.83"/>
            <rect class="cls-27" x="74.49" y="304.53" width="3.45" height="71.83"/>
            <rect class="cls-24" x="77.94" y="304.53" width="3.45" height="71.83"/>
            <rect class="cls-29" x="81.4" y="304.53" width="3.45" height="71.83"/>
            <rect class="cls-15" x="84.85" y="304.53" width="3.45" height="71.83"/>
            <rect class="cls-5" x="88.3" y="304.53" width="3.45" height="71.83"/>
            <rect class="cls-16" x="91.75" y="304.53" width="3.45" height="71.83"/>
            <rect class="cls-30" x="95.2" y="304.53" width="3.45" height="71.83"/>
            <rect class="cls-41" x="98.66" y="304.53" width="3.45" height="71.83"/>
            <rect class="cls-10" x="102.11" y="304.53" width="3.45" height="71.83"/>
            <rect class="cls-25" x="105.56" y="304.53" width="3.45" height="71.83"/>
            <rect class="cls-20" x="109.01" y="304.53" width="3.45" height="71.83"/>
            <rect class="cls-13" x="112.47" y="304.53" width="3.45" height="71.83"/>
            <rect class="cls-3" x="115.92" y="304.53" width="3.45" height="71.83"/>
            <rect class="cls-34" x="119.37" y="304.53" width="3.45" height="71.83"/>
            <rect class="cls-44" x="122.82" y="304.53" width="3.45" height="71.83"/>
            <rect class="cls-9" x="126.27" y="304.53" width="3.45" height="71.83"/>
            <rect class="cls-18" x="129.73" y="304.53" width="3.45" height="71.83"/>
            <rect class="cls-40" x="133.18" y="304.53" width="3.45" height="71.83"/>
            <rect class="cls-46" x="136.63" y="304.53" width="3.45" height="71.83"/>
            <rect class="cls-32" x="140.08" y="304.53" width="3.45" height="71.83"/>
            <rect class="cls-36" x="143.53" y="304.53" width="3.45" height="71.83"/>
            <rect class="cls-47" x="146.99" y="304.53" width="3.45" height="71.83"/>
            <rect class="cls-17" x="150.44" y="304.53" width="3.45" height="71.83"/>
            <rect class="cls-19" x="153.89" y="304.53" width="3.45" height="71.83"/>
            <rect class="cls-8" x="157.34" y="304.53" width="3.45" height="71.83"/>
            <rect class="cls-45" x="160.8" y="304.53" width="3.45" height="71.83"/>
            <rect class="cls-23" x="164.25" y="304.53" width="3.45" height="71.83"/>
            <rect class="cls-33" x="167.7" y="304.53" width="3.45" height="71.83"/>
            <rect class="cls-39" x="171.15" y="304.53" width="3.45" height="71.83"/>
            <rect class="cls-28" x="174.6" y="304.53" width="3.45" height="71.83"/>
            <rect class="cls-43" x="178.06" y="304.53" width="3.45" height="71.83"/>
            <rect class="cls-42" x="181.51" y="304.53" width="3.45" height="71.83"/>
            <rect class="cls-48" x="184.96" y="304.53" width="3.45" height="71.83"/>
            <rect class="cls-26" x="188.41" y="304.53" width="3.45" height="71.83"/>
          </g>
          <path class="cls-2" d="M128,379.61c-17.61,0-34.21-3.88-46.75-10.94-13.13-7.38-20.36-17.41-20.36-28.23s7.23-20.84,20.36-28.23c12.54-7.05,29.14-10.94,46.75-10.94s34.21,3.88,46.75,10.94c13.13,7.38,20.36,17.41,20.36,28.23s-7.23,20.84-20.36,28.23c-12.54,7.05-29.14,10.94-46.75,10.94ZM128,307.77c-32.86,0-60.62,14.96-60.62,32.67s27.76,32.67,60.62,32.67,60.62-14.96,60.62-32.67-27.76-32.67-60.62-32.67Z"/>
        </g>
        <g id="shine-3" data-name="shine">
          <path class="cls-37" d="M142.68,369.48c12.48-2.16,10.6-6.78-.62-3.88-15.24,3.94-42.15-.62-54.93-6.56,11.08,8.84,38.59,13.37,55.55,10.43Z"/>
        </g>
      </g>
    </g>
    <g id="head">
      <g>
        <g>
          <path class="cls-22" d="M192.58,158.32c-9.13,38.16-57,67.7-83.04,57.48-26.04-10.23-36.48-45.69-23.32-79.21,13.16-33.52,39.31-53.21,66.61-47.07,28.06,6.31,49.81,26.73,39.75,68.81Z"/>
          <path class="cls-2" d="M121.2,220.42c-4.58,0-8.83-.73-12.61-2.21-13.36-5.25-23.26-16.8-27.9-32.55-4.57-15.51-3.46-33.27,3.12-50.02,6.72-17.11,16.71-30.79,28.9-39.56,12.63-9.09,26.7-12.23,40.68-9.09,16.77,3.77,29.53,12,36.88,23.79,7.84,12.57,9.46,28.77,4.82,48.15h0c-6.07,25.37-27.05,44.23-44.67,53.42-10.22,5.33-20.34,8.08-29.23,8.08ZM142.78,90.97c-22.09,0-42.67,17.33-54.15,46.56-6.16,15.68-7.21,32.25-2.97,46.66,4.17,14.18,12.99,24.54,24.82,29.19,9.69,3.81,23.38,1.75,37.55-5.64,20.87-10.89,37.36-30.52,42.03-50.03l2.52.6-2.52-.6c4.3-17.98,2.89-32.85-4.18-44.21-6.6-10.59-18.23-18.01-33.62-21.47-3.17-.71-6.34-1.06-9.48-1.06Z"/>
        </g>
        <path class="cls-31" d="M189.27,144.95c1.72-12.55-3.25-12.16-3.88-.58-.86,15.72-16.06,40.83-25.59,51.21,11.78-7.88,27.14-33.58,29.47-50.62Z"/>
      </g>
    </g>
    <g id="mandible_b">
      <path class="cls-4" d="M279.98,270.69c.89-2.76,4.01-5.95,6.85-6.52,2.84-.58,5.9.36,8.02,2.32,3.02,2.78,4,7.29,3.41,11.38-.59,4.09-2.56,7.86-4.69,11.41-2.13,3.55-4.48,7.01-5.98,10.87-.9,2.31-1.48,4.72-2.06,7.13-.38,1.58-.76,3.16-1.14,4.73-7.1-12.31-8.73-27.69-4.39-41.31Z"/>
      <path class="cls-2" d="M281.85,271.21c1.11-3.15,4.38-5.73,7.78-5.18,3.79.61,6.08,3.87,6.69,7.46,1.45,8.56-5.72,15.95-9.24,23.05-2.34,4.71-3.35,9.88-4.57,14.95l3.55-.46c-6.86-12.01-8.33-26.64-4.2-39.82.75-2.39-3-3.41-3.74-1.03-4.44,14.15-2.76,29.93,4.59,42.81.81,1.42,3.15,1.17,3.55-.46,1.25-5.19,2.25-10.46,4.79-15.2s5.51-8.67,7.49-13.44c1.77-4.26,2.54-9.15.96-13.6-1.57-4.41-5.21-7.64-9.93-8.16-5.17-.57-9.8,3.35-11.46,8.05-.83,2.36,2.92,3.38,3.74,1.03Z"/>
    </g>
    <g>
      <g id="mandible_f">
        <path class="cls-4" d="M363.26,275.98c.45-2.87-.88-7.12-3.16-8.91-2.27-1.8-5.42-2.34-8.2-1.56-3.95,1.12-6.87,4.69-8.19,8.61-1.32,3.92-1.27,8.16-.98,12.3.29,4.13.82,8.28.42,12.4-.24,2.46-.81,4.88-1.38,7.29-.37,1.58-.75,3.16-1.12,4.74,11.9-7.77,20.31-20.74,22.6-34.86Z"/>
        <path class="cls-2" d="M365.2,275.98c.52-3.88-1.19-8.55-4.43-10.83-3.75-2.63-9-2.49-12.75.04s-6.02,6.68-6.86,11.06c-1.02,5.36-.23,10.74.1,16.12.18,2.99.15,5.95-.4,8.9-.57,3.04-1.36,6.04-2.07,9.05-.37,1.56,1.37,3.17,2.85,2.19,12.36-8.14,21.06-21.4,23.5-36.02.17-1.03-.27-2.09-1.36-2.39-.93-.26-2.22.32-2.39,1.36-2.27,13.63-10.14,26.08-21.71,33.7l2.85,2.19c1.09-4.6,2.44-9.23,2.68-13.97s-.56-9.31-.68-13.97c-.11-4.2.32-8.53,2.73-12.09,1.93-2.85,5.29-4.85,8.8-4.05,3.93.89,5.76,4.92,5.26,8.71-.14,1.04.99,1.94,1.94,1.94,1.16,0,1.8-.9,1.94-1.94Z"/>
      </g>
      <path class="cls-7" d="M358.3,275.4c.77-6.59-2.14-6.04-2.41.13-.36,8.4-6.06,17.96-9.17,25.47,5.22-6.6,10.52-16.62,11.58-25.59Z"/>
    </g>
    <g id="tykadlo_down_f" class="cls-51">
      <path class="cls-6" d="M482.35,315.01c.78-4.47-1.87-26.58.06-41.05.68-5.12,1.53-8.7,2.89-13.69.85-3.14-4.12-4.07-4.97-.94-2.55,9.38-3.53,17.65-4.32,27.31-.71,8.73-1.68,23.88-1.34,28.18.26,3.24,6.9,4.66,7.68.19Z"/>
    </g>
    <g id="tykadlo_top_f" class="cls-51">
      <path class="cls-6" d="M436.88,308.1c-10.94-9.72-21.52-20.02-31.18-31.01-3.39-3.85-6.65-7.86-9.48-12.14-1.8-2.72-2.58-1.43-1.34,1.58,3.52,8.62,9.27,16.59,16.02,23.58,6.06,6.28,12.34,12.34,18.76,18.25,1.28,1.18,2.57,2.36,3.87,3.51,2.44,2.17,5.79-1.62,3.36-3.79h0Z"/>
    </g>
    <ellipse class="cls-6" cx="352" cy="352" rx="17.08" ry="11.76" transform="translate(-72.2 612.51) rotate(-76.56)"/>
    <ellipse class="cls-6" cx="288" cy="352" rx="16.13" ry="11.76" transform="translate(-121.32 550.26) rotate(-76.56)"/>
    <g id="hand_f_2">
      <path class="cls-6" d="M468.39,154.72c4.34,11.79,7.18,19.85,10.5,32.2,1.8,6.68,2.54,10.46,1.1,17.9-1.32,6.84-3.14,11.36-5.68,15.74-2.29,3.96-1.07,6.02,2.13,2.43,5.78-6.48,14.23-22.22,11.87-32.29-2.67-11.41-6.45-22.45-10.21-33.41-.75-2.19-1.51-4.37-2.3-6.54-1.49-4.05-8.91-.07-7.42,3.97h0Z"/>
    </g>
    <g id="hand_f_2-2" data-name="hand_f_2">
      <path class="cls-6" d="M404.39,154.72c6.68,18.17,12.44,37.02,16.43,56.48,1.4,6.82,2.51,13.8,2.85,20.99.22,4.57,2.25,3.07,3.02-1.68,2.2-13.59.96-27.19-2.38-39.81-3-11.33-6.45-22.45-10.21-33.41-.75-2.19-1.51-4.37-2.3-6.54-1.49-4.05-8.91-.07-7.42,3.97h0Z"/>
    </g>
    <g id="jehla">
      <g id="Jehlici">
        <g>
          <rect class="cls-12" x="315.48" y="161.09" width="9.1" height="41.93" transform="translate(-.23 .41) rotate(-.07)"/>
          <path class="cls-6" d="M323.89,158.1h-3.88s-3.91.01-3.91.01h-2.85s.78,16.47.78,16.47l.14,2.98.36,7.53.17,3.59.13,2.73.04.92.65,13.69h9.09s.64-14,.64-14l.03-.48.22-4.98v-.31s.41-8.71.41-8.71l.14-2.96h0s.76-16.47.76-16.47h-2.88ZM317.71,203.04l-.52-10.96-.03-.67-.16-3.49-.13-2.71-.37-7.64-.14-2.98-.29-5.98-.21-4.51h4.13s.02,0,.02,0h4.16s-.21,4.5-.21,4.5l-.28,5.97v.02s-.14,2.96-.14,2.96l-.4,8.5-.02.52-.23,5.05v.14s-.52,11.27-.52,11.27h-4.66Z"/>
        </g>
        <g>
          <polygon class="cls-14" points="330.35 174.56 309.65 174.59 319.96 87.67 330.35 174.56"/>
          <path class="cls-6" d="M304.44,177.57h9.71s1.31-.01,1.31-.01h1.03s7.05-.02,7.05-.02h1.01s0,0,0,0h1.31s9.67-.01,9.67-.01l-15.62-127.56-15.49,127.6ZM324.56,168.61l-.58-.02-3.95.02h-.02s-3.93-.01-3.93-.01h-.6s-.62,0-.62,0l.61-5.09v-.05s.28-2.36.28-2.36l.36-2.99,3.89-32.64,3.91,32.63.35,2.99.31,2.57v.11s.59,4.83.59,4.83h-.57s-.02,0-.02,0Z"/>
        </g>
        <polygon class="cls-11" points="330.35 174.56 309.65 174.59 319.94 57.63 330.35 174.56"/>
        <polygon class="cls-12" points="319.94 57.63 320.02 174.58 309.65 174.59 319.94 57.63"/>
      </g>
      <path class="cls-37" d="M328.06,167.72c.3-1.62-4.92-65.04-4.92-65.04,0,0,2.35,62.47,2.95,65.02s1.67,1.64,1.97.02Z"/>
    </g>
    <path class="cls-6" d="M277.41,415.59c1.9-.06,3.72.38,5.56.78,1.75.38,3.49.77,5.22,1.23,3.38.9,6.65,2.08,9.64,3.93,1.65,1.02,3.15-1.58,1.51-2.59-3.19-1.97-6.74-3.27-10.35-4.23-1.79-.48-3.59-.88-5.4-1.27-2.03-.44-4.08-.92-6.18-.85-1.93.06-1.93,3.06,0,3h0Z"/>
    <path class="cls-6" d="M340.97,416.39c7.2-.33,14.91-.68,21.45,2.86,1.7.92,3.21-1.67,1.51-2.59-7.04-3.81-15.19-3.63-22.96-3.27-1.92.09-1.93,3.09,0,3h0Z"/>
  </g>
</svg>