<?xml version="1.0" encoding="UTF-8"?>
<svg id="Concepts" xmlns="http://www.w3.org/2000/svg" viewBox="0 0 128 256">
  <defs>
    <style>
      .cls-1 {
        fill: #000;
      }

      .cls-1, .cls-2, .cls-3, .cls-4, .cls-5 {
        stroke-width: 0px;
      }

      .cls-2 {
        fill: #72c156;
      }

      .cls-3 {
        fill: #999;
      }

      .cls-4 {
        fill: #a8a8a8;
      }

      .cls-5 {
        fill: #fff;
      }
    </style>
  </defs>
  <g id="concept_4" data-name="concept 4">
    <g id="jehla">
      <g id="Jehlici">
        <g>
          <rect class="cls-3" x="59.48" y="161.09" width="9.1" height="41.93" transform="translate(-.23 .08) rotate(-.07)"/>
          <path class="cls-1" d="M67.89,158.1h-3.88s-3.91.01-3.91.01h-2.85s.78,16.47.78,16.47l.14,2.98.36,7.53.17,3.59.13,2.73.04.92.65,13.69h9.09s.64-14,.64-14l.03-.48.22-4.98v-.31s.41-8.71.41-8.71l.14-2.96h0s.76-16.47.76-16.47h-2.88ZM61.71,203.04l-.52-10.96-.03-.67-.16-3.49-.13-2.71-.37-7.64-.14-2.98-.29-5.98-.21-4.51h4.13s.02,0,.02,0h4.16s-.21,4.5-.21,4.5l-.28,5.97v.02s-.14,2.96-.14,2.96l-.4,8.5-.02.52-.23,5.05v.14s-.52,11.27-.52,11.27h-4.66Z"/>
        </g>
        <g>
          <polygon class="cls-2" points="74.35 174.56 53.65 174.59 63.96 87.67 74.35 174.56"/>
          <path class="cls-1" d="M48.44,177.57h9.71s1.31-.01,1.31-.01h1.03s7.05-.02,7.05-.02h1.01s0,0,0,0h1.31s9.67-.01,9.67-.01l-15.62-127.56-15.49,127.6ZM68.56,168.61l-.58-.02-3.95.02h-.02s-3.93-.01-3.93-.01h-.6s-.62,0-.62,0l.61-5.09v-.05s.28-2.36.28-2.36l.36-2.99,3.89-32.64,3.91,32.63.35,2.99.31,2.57v.11s.59,4.83.59,4.83h-.57s-.02,0-.02,0Z"/>
        </g>
        <polygon class="cls-4" points="74.35 174.56 53.65 174.59 63.94 57.63 74.35 174.56"/>
        <polygon class="cls-3" points="63.94 57.63 64.02 174.58 53.65 174.59 63.94 57.63"/>
      </g>
      <path class="cls-5" d="M72.06,167.72c.3-1.62-4.92-65.04-4.92-65.04,0,0,2.35,62.47,2.95,65.02.61,2.55,1.67,1.64,1.97.02Z"/>
    </g>
  </g>
</svg>