<?xml version="1.0" encoding="UTF-8"?>
<svg id="Concepts" xmlns="http://www.w3.org/2000/svg" viewBox="0 0 256 256">
  <defs>
    <style>
      .cls-1 {
        fill: #1e1e1c;
      }

      .cls-1, .cls-2, .cls-3 {
        stroke-width: 0px;
      }

      .cls-2 {
        fill: #efefef;
      }

      .cls-3 {
        fill: #fff;
      }
    </style>
  </defs>
  <g id="concept_4" data-name="concept 4">
    <g id="Torso">
      <g id="torso_1">
        <g id="Torso_part_1">
          <ellipse class="cls-2" cx="130.11" cy="166.5" rx="57.53" ry="40.97"/>
          <path class="cls-1" d="M130.11,210.72c-33.51,0-60.77-19.84-60.77-44.22s27.26-44.22,60.77-44.22,60.78,19.84,60.78,44.22-27.26,44.22-60.78,44.22ZM130.11,128.78c-29.93,0-54.28,16.92-54.28,37.72s24.35,37.72,54.28,37.72,54.28-16.92,54.28-37.72-24.35-37.72-54.28-37.72Z"/>
        </g>
        <g id="shine">
          <path class="cls-3" d="M153.53,196.71c11.47-5.39,8.94-9.33-1.11-3.56-13.66,7.84-41.12,3.66-53.3-1.21,9.74,7.4,38.84,12.09,54.42,4.77Z"/>
        </g>
      </g>
      <g id="torso_2">
        <g id="Torso_part_2">
          <ellipse class="cls-2" cx="128" cy="127.89" rx="63.87" ry="37.38"/>
          <path class="cls-1" d="M128,168.52c-17.63,0-34.25-4.05-46.8-11.39-13.1-7.67-20.31-18.05-20.31-29.24s7.21-21.57,20.31-29.24c12.55-7.35,29.17-11.39,46.8-11.39s34.25,4.05,46.8,11.39c13.1,7.67,20.31,18.05,20.31,29.24s-7.21,21.57-20.31,29.24c-12.55,7.35-29.17,11.39-46.8,11.39ZM128,93.75c-33.42,0-60.62,15.31-60.62,34.14s27.19,34.14,60.62,34.14,60.62-15.31,60.62-34.14-27.19-34.14-60.62-34.14Z"/>
        </g>
        <g id="shine-2" data-name="shine">
          <path class="cls-3" d="M163.24,152.16c11.47-5.39,8.43-9.34-1.62-3.57-13.66,7.84-40.15,9.38-54.05,7.04,13.02,5.59,40.1,3.85,55.67-3.46Z"/>
        </g>
      </g>
      <g id="torso_3">
        <g id="Torso_part_3">
          <ellipse class="cls-2" cx="128" cy="84.44" rx="63.87" ry="35.92"/>
          <path class="cls-1" d="M128,123.61c-17.61,0-34.21-3.88-46.75-10.94-13.13-7.38-20.36-17.41-20.36-28.23s7.23-20.84,20.36-28.23c12.54-7.05,29.14-10.94,46.75-10.94s34.21,3.88,46.75,10.94c13.13,7.38,20.36,17.41,20.36,28.23s-7.23,20.84-20.36,28.23c-12.54,7.05-29.14,10.94-46.75,10.94ZM128,51.77c-32.86,0-60.62,14.96-60.62,32.67s27.76,32.67,60.62,32.67,60.62-14.96,60.62-32.67-27.76-32.67-60.62-32.67Z"/>
        </g>
        <g id="shine-3" data-name="shine">
          <path class="cls-3" d="M142.68,113.48c12.48-2.16,10.6-6.78-.62-3.88-15.24,3.94-42.15-.62-54.93-6.56,11.08,8.84,38.59,13.37,55.55,10.43Z"/>
        </g>
      </g>
    </g>
  </g>
</svg>